    <svg width="903" height="526" viewBox="0 0 903 526" fill="none" xmlns="http://www.w3.org/2000/svg">
<path d="M305.892 408.232C180.16 415.497 49.6574 324.892 87.4888 264.725L106.071 243.422L265.456 200.054C265.456 200.054 342.682 109.584 380.436 126.104C418.189 142.625 431.624 400.966 305.892 408.232Z" fill="#F2F2F2"/>
<circle cx="173.977" cy="362.5" r="50" transform="rotate(-1.85245 173.977 362.5)" fill="#2F2E41"/>
<circle cx="173.074" cy="350.023" r="12.5" transform="rotate(-1.85245 173.074 350.023)" fill="white"/>
<circle cx="173.074" cy="350.023" r="5.5" transform="rotate(-1.85245 173.074 350.023)" fill="black"/>
<path d="M142.491 399.537C142.491 399.537 140.834 441.107 143.857 441.763C146.88 442.418 152.624 447.131 156.939 444.094C160.185 441.809 161.701 439.977 160.179 435.985C158.846 432.488 151.897 436.253 151.767 432.228C151.637 428.204 155.654 404.362 150.867 404.421C146.081 404.481 142.491 399.537 142.491 399.537Z" fill="#2F2E41"/>
<path d="M179.569 401.34C179.569 401.34 177.912 442.909 180.935 443.565C183.957 444.22 189.701 448.934 194.017 445.896C197.263 443.611 198.778 441.779 197.256 437.787C195.923 434.291 188.975 438.055 188.844 434.03C188.714 430.006 192.732 406.164 187.945 406.224C183.158 406.283 179.569 401.34 179.569 401.34Z" fill="#2F2E41"/>
<path d="M207.891 312.878C208.516 332.198 195.164 326.797 175.844 327.422C156.524 328.047 138.552 334.461 137.928 315.141C137.303 295.821 152.458 279.653 171.778 279.028C191.098 278.403 207.266 293.558 207.891 312.878Z" fill="#6E3AFF"/>
<circle cx="181" cy="227.5" r="50" fill="#2F2E41"/>
<circle cx="180.5" cy="215" r="12.5" fill="white"/>
<circle cx="180.5" cy="215" r="5.5" fill="black"/>
<path d="M202 240.304C202 251.458 192.598 260.5 181 260.5C169.402 260.5 160 251.458 160 240.304C160 229.15 169.402 246.074 181 246.074C192.598 246.074 202 229.15 202 240.304Z" fill="white"/>
<path d="M148.333 263.5C148.333 263.5 145.333 304.994 148.333 305.747C151.333 306.5 156.922 311.397 161.333 308.5C164.652 306.321 166.225 304.539 164.833 300.5C163.614 296.962 156.547 300.5 156.547 296.473C156.547 292.447 161.333 268.747 156.547 268.652C151.761 268.557 148.333 263.5 148.333 263.5Z" fill="#2F2E41"/>
<path d="M185.333 266.5C185.333 266.5 182.333 307.994 185.333 308.747C188.333 309.5 193.922 314.397 198.333 311.5C201.652 309.321 203.225 307.539 201.833 303.5C200.614 299.962 193.547 303.5 193.547 299.473C193.547 295.447 198.333 271.747 193.547 271.652C188.761 271.557 185.333 266.5 185.333 266.5Z" fill="#2F2E41"/>
<path d="M216.5 179C216.5 198.33 203.33 192.5 184 192.5C164.67 192.5 146.5 198.33 146.5 179C146.5 159.67 162.17 144 181.5 144C200.83 144 216.5 159.67 216.5 179Z" fill="#6E3AFF"/>
<ellipse cx="245.314" cy="209.419" rx="24.5876" ry="8" transform="rotate(-37.9112 245.314 209.419)" fill="#2F2E41"/>
<ellipse cx="114.237" cy="220.4" rx="24.5876" ry="8" transform="rotate(30.5934 114.237 220.4)" fill="#2F2E41"/>
<circle cx="181" cy="227.5" r="50" fill="#2F2E41"/>
<circle cx="180.5" cy="215" r="12.5" fill="white"/>
<circle cx="180.5" cy="215" r="5.5" fill="black"/>
<path d="M202 240.304C202 251.458 192.598 260.5 181 260.5C169.402 260.5 160 251.458 160 240.304C160 229.15 169.402 246.074 181 246.074C192.598 246.074 202 229.15 202 240.304Z" fill="white"/>
<path d="M148.333 263.5C148.333 263.5 145.333 304.994 148.333 305.747C151.333 306.5 156.922 311.397 161.333 308.5C164.652 306.321 166.225 304.539 164.833 300.5C163.614 296.962 156.547 300.5 156.547 296.473C156.547 292.447 161.333 268.747 156.547 268.652C151.761 268.557 148.333 263.5 148.333 263.5Z" fill="#2F2E41"/>
<path d="M185.333 266.5C185.333 266.5 182.333 307.994 185.333 308.747C188.333 309.5 193.922 314.397 198.333 311.5C201.652 309.321 203.225 307.539 201.833 303.5C200.614 299.962 193.547 303.5 193.547 299.473C193.547 295.447 198.333 271.747 193.547 271.652C188.761 271.557 185.333 266.5 185.333 266.5Z" fill="#2F2E41"/>
<path d="M216.5 179C216.5 198.33 203.33 192.5 184 192.5C164.67 192.5 146.5 198.33 146.5 179C146.5 159.67 162.17 144 181.5 144C200.83 144 216.5 159.67 216.5 179Z" fill="#6E3AFF"/>
<ellipse cx="245.314" cy="209.419" rx="24.5876" ry="8" transform="rotate(-37.9112 245.314 209.419)" fill="#2F2E41"/>
<ellipse cx="114.237" cy="220.4" rx="24.5876" ry="8" transform="rotate(30.5934 114.237 220.4)" fill="#2F2E41"/>
<circle cx="466" cy="119" r="50" fill="#FE6F8D"/>
<rect x="261" y="133" width="189" height="76" fill="#6E3AFF"/>
<rect x="277.5" y="119.5" width="210" height="73" stroke="black"/>
<rect x="528" y="55" width="22" height="22" fill="#FE6F8D"/>
<rect x="536.5" y="48.5" width="21" height="21" stroke="black"/>
<ellipse cx="167" cy="445.5" rx="108" ry="6.5" fill="#3F3D56"/>
<circle cx="637" cy="392.5" r="50" fill="#2F2E41"/>
<circle cx="636.5" cy="380" r="12.5" fill="white"/>
<circle cx="632.5" cy="376" r="5.5" fill="black"/>
<path d="M658 405.304C658 416.458 648.598 425.5 637 425.5C625.402 425.5 616 416.458 616 405.304C616 394.15 625.402 411.074 637 411.074C648.598 411.074 658 394.15 658 405.304Z" fill="white"/>
<path d="M604.333 428.5C604.333 428.5 601.333 469.994 604.333 470.747C607.333 471.5 612.922 476.397 617.333 473.5C620.652 471.321 622.225 469.539 620.833 465.5C619.614 461.962 612.547 465.5 612.547 461.473C612.547 457.447 617.333 433.747 612.547 433.652C607.761 433.557 604.333 428.5 604.333 428.5Z" fill="#2F2E41"/>
<path d="M641.333 431.5C641.333 431.5 638.333 472.994 641.333 473.747C644.333 474.5 649.922 479.397 654.333 476.5C657.652 474.321 659.225 472.539 657.833 468.5C656.614 464.962 649.547 468.5 649.547 464.473C649.547 460.447 654.333 436.747 649.547 436.652C644.761 436.557 641.333 431.5 641.333 431.5Z" fill="#2F2E41"/>
<path d="M672.5 344C672.5 363.33 659.33 357.5 640 357.5C620.67 357.5 602.5 363.33 602.5 344C602.5 324.67 618.17 309 637.5 309C656.83 309 672.5 324.67 672.5 344Z" fill="#6E3AFF"/>
<ellipse cx="686.841" cy="408.48" rx="24.5876" ry="8" transform="rotate(42.8309 686.841 408.48)" fill="#2F2E41"/>
<ellipse cx="586.237" cy="379.4" rx="24.5876" ry="8" transform="rotate(30.5934 586.237 379.4)" fill="#2F2E41"/>
<ellipse cx="624" cy="477.5" rx="108" ry="6.5" fill="#3F3D56"/>
<rect x="557" y="352" width="25" height="25" fill="#FE6F8D"/>
<path d="M844.368 315.342C843.604 362.556 851.069 400.961 785.493 399.9C734.585 399.077 728.619 360.696 729.383 313.482C730.146 266.268 763.141 205.014 789.131 174.93C810.692 202.282 845.131 268.127 844.368 315.342Z" fill="#F2F2F2"/>
<path d="M795.5 456.5L790.5 178.5L785 456.5H795.5Z" fill="#2E2A2A" stroke="black"/>
<path d="M792.02 377.725L837.339 315.064L787 373.785L792.02 377.725Z" fill="#2E2A2A" stroke="black"/>
<path d="M793.147 280.801L822.519 240.294L790 278.332L793.147 280.801Z" fill="#2E2A2A" stroke="black"/>
<path d="M792.051 351.664L745.754 289.722L786.793 355.281L792.051 351.664Z" fill="#2E2A2A" stroke="black"/>
<ellipse cx="789.5" cy="452" rx="33.5" ry="8" fill="black"/>
<path d="M791.971 265.181L760.684 226.134L788.757 267.562L791.971 265.181Z" fill="#2E2A2A" stroke="black"/>
</svg>
